# xmcd CD database file
#
# Track frame offsets:
#	150
#	18561
#	36858
#	57299
#	78766
#	99845
#	117469
#	136732
#	154608
#	174572
#	195191
#	216199
#	246169
#
# Disc length: 3699 seconds
#
# Revision: 0
# Processed by: cddbd v1.5.2PL0 Copyright (c) Steve Scherf et al.
# Submitted via: CDex 1.70beta2
#
DISCID=9f0e710d
DTITLE=Janita - Seasons Of Life
DYEAR=2006
DGENRE=Jazz
TTITLE0=No Words
TTITLE1=I Miss You
TTITLE2=That's How Life Goes
TTITLE3=More Than Fantasy
TTITLE4=Let Me Love You
TTITLE5=Bear With Me
TTITLE6=Enjoy The Silence
TTITLE7=I Only Want You
TTITLE8=I Can't Get Enough Of You
TTITLE9=Too Late
TTITLE10=Seasons Of Life
TTITLE11=Enjoy The (Silence Nuspirit Helsinki Remix)
TTITLE12=No Words (Janathan Maron and K's Sophistifunk Mix)
EXTD=YEAR: 2006
EXTT0=
EXTT1=
EXTT2=
EXTT3=
EXTT4=
EXTT5=
EXTT6=
EXTT7=
EXTT8=
EXTT9=
EXTT10=
EXTT11=
EXTT12=
PLAYORDER=
